<svg width="503" height="338" viewBox="0 0 503 338" fill="none" xmlns="http://www.w3.org/2000/svg">
<path d="M128.47 216.659L168.191 193.341L199.393 239.773C181.165 254.985 150.542 266.048 134.718 262.67C102.244 255.737 36.6205 163.534 27.5153 156.514C-3.48277 132.617 -13.5592 123.548 25.2289 142.117C62.2095 159.821 42.6228 142.117 51.6831 142.117C62.5676 142.877 58.9609 152.538 54.9207 159.46L128.47 216.659Z" fill="url(#paint0_linear)"/>
<path d="M349.852 181.334C338.645 173.552 294.363 159.534 274.915 153.497L254.34 155.742C241.376 158.956 213.569 164.435 200.779 169.621C187.988 174.806 164.776 191.343 143.121 205.133L148.234 222.841C152.826 238.744 164.969 251.356 180.687 256.547C184.732 282.269 188.22 324.086 187.644 337.05L338.13 336.933L345.019 273.285L376.008 276.605L402.185 256.547C369.408 199.853 363.86 191.062 349.852 181.334Z" fill="url(#paint1_linear)"/>
<path d="M392.903 327.588C440.584 321.543 409.572 273.218 401.119 257.259C390.894 265.866 378.268 271.117 364.955 272.3L348.524 273.759L355.252 289.281L282.613 306.287L272.422 334.558C279.68 333.322 333.61 335.107 392.903 327.588Z" fill="url(#paint2_linear)"/>
<path d="M271.844 26.6233C269.497 22.3796 262.767 16.4385 254.619 26.6233H271.844Z" fill="#30235B"/>
<ellipse rx="25.9725" ry="18.5082" transform="matrix(-1 0 0 1 267.933 172.006)" fill="#CF0606"/>
<path d="M289.214 171.011L285.583 134.862H250.238L246.178 171.011C247.597 175.268 254.297 183.904 266.704 183.904C282.516 183.904 288.2 175.268 289.214 171.011Z" fill="url(#paint3_linear)"/>
<mask id="mask0" mask-type="alpha" maskUnits="userSpaceOnUse" x="246" y="134" width="44" height="50">
<path d="M289.214 171.011L285.583 134.862H250.238L246.171 171.084C247.59 175.341 254.312 183.905 266.719 183.905C282.532 183.905 288.2 175.268 289.214 171.011Z" fill="url(#paint4_linear)"/>
</mask>
<g mask="url(#mask0)">
<path opacity="0.1" d="M237.5 136.246C269.459 175.788 287.318 143.994 296.543 139.225L290.204 112.493L252.362 107.974L237.5 136.246Z" fill="black"/>
</g>
<path d="M268.545 149.374C306.662 149.374 313.217 94.6594 301.44 69.633C274.941 37.2458 241.818 56.1383 228.569 69.633C225.379 90.4884 221.862 149.374 268.545 149.374Z" fill="url(#paint5_linear)"/>
<path d="M227.918 107.516L235.386 102.015L234.23 97.9193L225.701 103.544L227.918 107.516Z" fill="#111111"/>
<path d="M305.723 105.921L298.255 100.419L299.41 96.324L307.94 101.948L305.723 105.921Z" fill="#111111"/>
<path d="M298.889 72.9214C271.865 90.5278 241.907 80.2574 230.306 72.9214C232.749 80.6254 229.288 95.4339 227.253 101.875C209.669 78.9767 215.417 66.6116 220.49 63.2913C221.335 51.8788 231.71 23.3446 266.539 24.6972C301.368 26.0498 308.127 50.7516 307.14 59.9098C320.328 77.8317 312.482 95.3541 306.121 101.875C298.889 87.835 299.054 77.9856 298.889 72.9214Z" fill="#30235B"/>
<g filter="url(#filter0_d)">
<path d="M263.771 42.3179C304.114 40.9675 313.1 67.4988 314.306 82.9054C314.403 84.1389 315.412 85.1105 316.649 85.1105C317.97 85.1105 319.022 84.0095 318.904 82.6945C317.144 62.9405 306.612 28.4217 263.771 30.8017C220.515 33.2048 212.053 67.6402 213.38 86.8359C213.451 87.8629 214.319 88.6394 215.349 88.6394C216.472 88.6394 217.373 87.7283 217.418 86.606C218.054 70.6791 228.642 43.3361 263.771 42.3179Z" fill="white"/>
</g>
<g filter="url(#filter1_d)">
<rect width="5.4757" height="21.0131" rx="2.73785" transform="matrix(-0.984643 0.17458 0.17458 0.984643 214.572 94.9391)" fill="#24C28A"/>
</g>
<g filter="url(#filter2_d)">
<rect width="16.8668" height="43.7733" rx="8.43338" transform="matrix(-0.984643 0.174581 0.174579 0.984643 224.337 81.3162)" fill="white"/>
</g>
<g filter="url(#filter3_d)">
<rect x="320.483" y="94.9391" width="5.4757" height="21.013" rx="2.73785" transform="rotate(10.0542 320.483 94.9391)" fill="#24C28A"/>
</g>
<g filter="url(#filter4_d)">
<rect x="308.872" y="81.3162" width="16.8668" height="43.7733" rx="8.43338" transform="rotate(10.0542 308.872 81.3162)" fill="white"/>
</g>
<mask id="mask1" mask-type="alpha" maskUnits="userSpaceOnUse" x="302" y="82" width="23" height="45">
<rect x="308.872" y="81.3162" width="16.8668" height="43.7733" rx="8.43338" transform="rotate(10.0542 308.872 81.3162)" fill="white"/>
</mask>
<g mask="url(#mask1)">
<rect width="21.9399" height="47.5168" transform="matrix(-0.98451 -0.175327 -0.175326 0.98451 317.814 81.3162)" fill="#E8E8E8"/>
</g>
<mask id="mask2" mask-type="alpha" maskUnits="userSpaceOnUse" x="209" y="82" width="22" height="45">
<rect width="16.8668" height="43.7733" rx="8.43338" transform="matrix(-0.984643 0.17458 0.17458 0.984643 224.337 81.3162)" fill="white"/>
</mask>
<g mask="url(#mask2)">
<rect x="215.371" y="81.3162" width="21.9399" height="47.5168" transform="rotate(-10.0977 215.371 81.3162)" fill="#E8E8E8"/>
</g>
<path opacity="0.5" d="M284.97 113.907C290.363 113.907 293.078 109.657 293.768 107.76C294.562 106.173 295.188 102.038 293.31 98.7533C290.92 94.577 279.691 93.4124 275.758 99.3124C271.824 105.212 275.758 113.907 284.97 113.907Z" fill="#E6FCFF"/>
<path opacity="0.5" d="M249.239 113.907C243.846 113.907 241.131 109.657 240.441 107.76C239.647 106.173 239.021 102.038 240.899 98.7533C243.289 94.577 254.518 93.4124 258.451 99.3124C262.385 105.212 258.451 113.907 249.239 113.907Z" fill="#E6FCFF"/>
<path fill-rule="evenodd" clip-rule="evenodd" d="M272.972 98.0104C281.766 90.287 289.71 93.5549 294.417 95.4912C294.941 95.7065 295.424 95.9054 295.864 96.0708L298.811 96.0763C299.366 96.0774 299.814 96.5302 299.81 97.0852L299.788 99.5628C299.783 100.112 299.336 100.554 298.788 100.554L296.657 100.554C298.2 113.805 288.428 117.351 280.613 114.962C273.645 112.833 271.78 106.808 271.408 103.028C269.917 99.7254 263.383 101.251 263.124 102.954C263.118 102.994 263.111 103.039 263.104 103.088L263.104 103.088C262.797 105.162 261.252 115.611 249.489 115.625C239.854 115.637 237.241 107.03 237.139 102.724L234.645 102.702C234.092 102.697 233.649 102.246 233.654 101.693L233.681 98.6622C233.685 98.1099 234.137 97.6662 234.689 97.6711L237.183 97.6932C243.46 91.335 256.941 91.9305 261.69 97.9104C266.929 96.7021 271.394 97.4736 272.972 98.0104ZM284.97 113.907C290.363 113.907 293.078 109.657 293.768 107.76C294.562 106.173 295.189 102.038 293.31 98.7532C290.92 94.577 279.691 93.4124 275.758 99.3124C271.824 105.212 275.758 113.907 284.97 113.907ZM240.44 107.76C241.13 109.657 243.845 113.907 249.238 113.907C258.45 113.907 262.384 105.212 258.45 99.3124C254.517 93.4123 243.288 94.577 240.898 98.7532C239.02 102.038 239.646 106.173 240.44 107.76Z" fill="#111111"/>
<path d="M341.318 331.687C341.318 331.132 340.869 330.683 340.314 330.683H185.922C184.951 330.683 184.164 331.47 184.164 332.441C184.164 335.353 186.525 337.715 189.438 337.715H335.291C338.62 337.715 341.318 335.016 341.318 331.687Z" fill="#B4B4B4"/>
<rect width="157.155" height="105.147" rx="2.94666" transform="matrix(-1 0 0 1 341.318 228.147)" fill="url(#paint6_linear)"/>
<circle r="11.1765" transform="matrix(-1 0 0 1 264.742 280.721)" fill="white"/>
<path fill-rule="evenodd" clip-rule="evenodd" d="M374.404 92.8754C374.205 89.4666 373.525 86.6131 372.959 85.0271C371.846 87.809 371.296 90.4798 371.11 92.9155C368.674 93.1014 366.004 93.6515 363.222 94.7642C364.808 95.3306 367.661 96.0102 371.07 96.2095C371.26 99.8283 372.191 102.64 372.959 104.08C373.893 101.463 374.32 98.7717 374.431 96.2365C376.966 96.1253 379.658 95.6988 382.275 94.7642C380.835 93.9961 378.023 93.0655 374.404 92.8754Z" fill="url(#paint7_linear)"/>
<path fill-rule="evenodd" clip-rule="evenodd" d="M401.292 70.4487C401.159 68.1798 400.707 66.2804 400.33 65.2247C399.589 67.0764 399.223 68.8542 399.099 70.4754C397.478 70.5992 395.7 70.9653 393.849 71.706C394.904 72.083 396.804 72.5354 399.073 72.668C399.199 75.0768 399.819 76.9484 400.33 77.907C400.952 76.1652 401.236 74.3735 401.31 72.686C402.997 72.612 404.789 72.3281 406.531 71.706C405.572 71.1947 403.701 70.5753 401.292 70.4487Z" fill="url(#paint8_linear)"/>
<path fill-rule="evenodd" clip-rule="evenodd" d="M442.615 54.471C442.416 51.0623 441.736 48.2088 441.17 46.6228C440.057 49.4047 439.507 52.0755 439.321 54.5111C436.885 54.697 434.214 55.2471 431.433 56.3598C433.019 56.9262 435.872 57.6058 439.281 57.8051C439.471 61.424 440.401 64.2357 441.17 65.6758C442.104 63.059 442.531 60.3673 442.642 57.8321C445.177 57.7209 447.869 57.2944 450.486 56.3598C449.046 55.5917 446.234 54.6611 442.615 54.471Z" fill="url(#paint9_linear)"/>
<path fill-rule="evenodd" clip-rule="evenodd" d="M438.906 132.812C438.613 127.797 437.613 123.599 436.779 121.265C435.142 125.358 434.333 129.287 434.059 132.871C430.476 133.144 426.547 133.954 422.454 135.591C424.787 136.424 428.986 137.424 434.001 137.717C434.28 143.041 435.649 147.178 436.779 149.297C438.154 145.447 438.782 141.487 438.945 137.757C442.675 137.593 446.636 136.966 450.486 135.591C448.367 134.461 444.23 133.091 438.906 132.812Z" fill="url(#paint10_linear)"/>
<circle r="1.8414" transform="matrix(-1 0 0 1 410.437 103.157)" fill="#2F235A"/>
<circle r="1.8414" transform="matrix(-1 0 0 1 368.179 50.3597)" fill="#FE9076"/>
<circle r="1.8414" transform="matrix(-1 0 0 1 458.798 95.8467)" fill="#FFA400"/>
<circle r="1.8414" transform="matrix(-1 0 0 1 378.272 131.557)" fill="#23BB86"/>
<path d="M372.69 42.6746C376.854 36.9568 388.581 24.7439 402.184 21.6345" stroke="#FE9076" stroke-width="1.60277" stroke-linecap="round"/>
<path d="M466.568 90.9112C472.721 87.4236 488.446 81.1452 502.119 83.9325" stroke="#FFA400" stroke-width="1.60277" stroke-linecap="round"/>
<path d="M384.593 136.906C387.746 139.688 395.332 147.59 400.451 156.937" stroke="#23BB86" stroke-width="1.60277" stroke-linecap="round"/>
<path fill-rule="evenodd" clip-rule="evenodd" d="M161.054 92.8754C161.253 89.4666 161.933 86.6131 162.499 85.0271C163.612 87.809 164.162 90.4798 164.348 92.9155C166.784 93.1014 169.454 93.6515 172.236 94.7642C170.65 95.3306 167.797 96.0102 164.388 96.2095C164.198 99.8283 163.267 102.64 162.499 104.08C161.565 101.463 161.138 98.7717 161.027 96.2365C158.492 96.1253 155.8 95.6988 153.183 94.7642C154.623 93.9961 157.435 93.0655 161.054 92.8754Z" fill="url(#paint11_linear)"/>
<path fill-rule="evenodd" clip-rule="evenodd" d="M134.166 70.4487C134.299 68.1798 134.751 66.2804 135.128 65.2247C135.869 67.0764 136.235 68.8542 136.359 70.4754C137.98 70.5992 139.758 70.9653 141.609 71.706C140.554 72.083 138.654 72.5354 136.385 72.668C136.259 75.0768 135.639 76.9484 135.128 77.907C134.506 76.1652 134.222 74.3735 134.148 72.686C132.461 72.612 130.669 72.3281 128.927 71.706C129.886 71.1947 131.757 70.5753 134.166 70.4487Z" fill="url(#paint12_linear)"/>
<path fill-rule="evenodd" clip-rule="evenodd" d="M92.8431 54.471C93.0424 51.0623 93.722 48.2088 94.2885 46.6228C95.4012 49.4047 95.9513 52.0755 96.1372 54.5111C98.5728 54.697 101.244 55.2471 104.025 56.3598C102.439 56.9262 99.586 57.6058 96.1773 57.8051C95.9872 61.424 95.0566 64.2357 94.2885 65.6758C93.3539 63.059 92.9274 60.3673 92.8162 57.8321C90.281 57.7209 87.5892 57.2944 84.9723 56.3598C86.4125 55.5917 89.2242 54.6611 92.8431 54.471Z" fill="url(#paint13_linear)"/>
<path fill-rule="evenodd" clip-rule="evenodd" d="M96.5522 132.812C96.8454 127.797 97.8453 123.599 98.6786 121.265C100.316 125.358 101.125 129.287 101.399 132.871C104.982 133.144 108.911 133.954 113.004 135.591C110.671 136.424 106.472 137.424 101.458 137.717C101.178 143.041 99.8086 147.178 98.6786 149.297C97.3036 145.447 96.6762 141.487 96.5125 137.757C92.7826 137.593 88.8224 136.966 84.9724 135.591C87.0912 134.461 91.228 133.091 96.5522 132.812Z" fill="url(#paint14_linear)"/>
<circle cx="127.021" cy="103.157" r="1.8414" fill="#2F235A"/>
<circle cx="167.279" cy="50.3597" r="1.8414" fill="#FE9076"/>
<circle cx="76.6598" cy="95.8467" r="1.8414" fill="#FFA400"/>
<circle cx="157.185" cy="131.557" r="1.8414" fill="#23BB86"/>
<path d="M162.768 42.6746C158.604 36.9568 146.877 24.7439 133.274 21.6345" stroke="#FE9076" stroke-width="1.60277" stroke-linecap="round"/>
<path d="M68.8899 90.9112C62.7368 87.4236 47.0121 81.1452 33.3388 83.9325" stroke="#FFA400" stroke-width="1.60277" stroke-linecap="round"/>
<path d="M150.865 136.906C147.712 139.688 140.126 147.59 135.007 156.937" stroke="#23BB86" stroke-width="1.60277" stroke-linecap="round"/>
<defs>
<filter id="filter0_d" x="179.252" y="0.684814" width="173.661" height="125.955" filterUnits="userSpaceOnUse" color-interpolation-filters="sRGB">
<feFlood flood-opacity="0" result="BackgroundImageFix"/>
<feColorMatrix in="SourceAlpha" type="matrix" values="0 0 0 0 0 0 0 0 0 0 0 0 0 0 0 0 0 0 127 0"/>
<feOffset dy="4"/>
<feGaussianBlur stdDeviation="17"/>
<feColorMatrix type="matrix" values="0 0 0 0 0.0386285 0 0 0 0 0.0648437 0 0 0 0 0.104167 0 0 0 0.13 0"/>
<feBlend mode="normal" in2="BackgroundImageFix" result="effect1_dropShadow"/>
<feBlend mode="normal" in="SourceGraphic" in2="effect1_dropShadow" result="shape"/>
</filter>
<filter id="filter1_d" x="175.616" y="65.3745" width="76.1891" height="88.7754" filterUnits="userSpaceOnUse" color-interpolation-filters="sRGB">
<feFlood flood-opacity="0" result="BackgroundImageFix"/>
<feColorMatrix in="SourceAlpha" type="matrix" values="0 0 0 0 0 0 0 0 0 0 0 0 0 0 0 0 0 0 127 0"/>
<feOffset dy="4"/>
<feGaussianBlur stdDeviation="17"/>
<feColorMatrix type="matrix" values="0 0 0 0 0.0386285 0 0 0 0 0.0648437 0 0 0 0 0.104167 0 0 0 0.13 0"/>
<feBlend mode="normal" in2="BackgroundImageFix" result="effect1_dropShadow"/>
<feBlend mode="normal" in="SourceGraphic" in2="effect1_dropShadow" result="shape"/>
</filter>
<filter id="filter2_d" x="175.07" y="52.6576" width="89.5669" height="111.363" filterUnits="userSpaceOnUse" color-interpolation-filters="sRGB">
<feFlood flood-opacity="0" result="BackgroundImageFix"/>
<feColorMatrix in="SourceAlpha" type="matrix" values="0 0 0 0 0 0 0 0 0 0 0 0 0 0 0 0 0 0 127 0"/>
<feOffset dy="4"/>
<feGaussianBlur stdDeviation="17"/>
<feColorMatrix type="matrix" values="0 0 0 0 0.0386285 0 0 0 0 0.0648437 0 0 0 0 0.104167 0 0 0 0.13 0"/>
<feBlend mode="normal" in2="BackgroundImageFix" result="effect1_dropShadow"/>
<feBlend mode="normal" in="SourceGraphic" in2="effect1_dropShadow" result="shape"/>
</filter>
<filter id="filter3_d" x="283.25" y="65.3745" width="76.1891" height="88.7754" filterUnits="userSpaceOnUse" color-interpolation-filters="sRGB">
<feFlood flood-opacity="0" result="BackgroundImageFix"/>
<feColorMatrix in="SourceAlpha" type="matrix" values="0 0 0 0 0 0 0 0 0 0 0 0 0 0 0 0 0 0 127 0"/>
<feOffset dy="4"/>
<feGaussianBlur stdDeviation="17"/>
<feColorMatrix type="matrix" values="0 0 0 0 0.0386285 0 0 0 0 0.0648437 0 0 0 0 0.104167 0 0 0 0.13 0"/>
<feBlend mode="normal" in2="BackgroundImageFix" result="effect1_dropShadow"/>
<feBlend mode="normal" in="SourceGraphic" in2="effect1_dropShadow" result="shape"/>
</filter>
<filter id="filter4_d" x="268.571" y="52.6575" width="89.567" height="111.363" filterUnits="userSpaceOnUse" color-interpolation-filters="sRGB">
<feFlood flood-opacity="0" result="BackgroundImageFix"/>
<feColorMatrix in="SourceAlpha" type="matrix" values="0 0 0 0 0 0 0 0 0 0 0 0 0 0 0 0 0 0 127 0"/>
<feOffset dy="4"/>
<feGaussianBlur stdDeviation="17"/>
<feColorMatrix type="matrix" values="0 0 0 0 0.0386285 0 0 0 0 0.0648437 0 0 0 0 0.104167 0 0 0 0.13 0"/>
<feBlend mode="normal" in2="BackgroundImageFix" result="effect1_dropShadow"/>
<feBlend mode="normal" in="SourceGraphic" in2="effect1_dropShadow" result="shape"/>
</filter>
<linearGradient id="paint0_linear" x1="118.338" y1="81.3213" x2="115.691" y2="257.189" gradientUnits="userSpaceOnUse">
<stop stop-color="#FFEFE0"/>
<stop offset="1" stop-color="#FFBE99"/>
</linearGradient>
<linearGradient id="paint1_linear" x1="262.844" y1="123.208" x2="275.244" y2="371.546" gradientUnits="userSpaceOnUse">
<stop stop-color="#FF9F81"/>
<stop offset="1" stop-color="#F53838"/>
</linearGradient>
<linearGradient id="paint2_linear" x1="277.909" y1="210.483" x2="396.581" y2="267.358" gradientUnits="userSpaceOnUse">
<stop offset="0.0677966" stop-color="#FFEFE0"/>
<stop offset="1" stop-color="#FFBE99"/>
</linearGradient>
<linearGradient id="paint3_linear" x1="268.915" y1="95.9754" x2="266.835" y2="162.361" gradientUnits="userSpaceOnUse">
<stop stop-color="#FFEFE0"/>
<stop offset="1" stop-color="#FFBE99"/>
</linearGradient>
<linearGradient id="paint4_linear" x1="268.915" y1="95.9754" x2="271.829" y2="171.606" gradientUnits="userSpaceOnUse">
<stop stop-color="#FFEFE0"/>
<stop offset="1" stop-color="#FFBE99"/>
</linearGradient>
<linearGradient id="paint5_linear" x1="265.458" y1="60.5831" x2="265.458" y2="140.302" gradientUnits="userSpaceOnUse">
<stop stop-color="#FFEFE0"/>
<stop offset="1" stop-color="#FFBE99"/>
</linearGradient>
<linearGradient id="paint6_linear" x1="111.028" y1="-78.9128" x2="52.9226" y2="129.581" gradientUnits="userSpaceOnUse">
<stop offset="0.0171777" stop-color="white"/>
<stop offset="1" stop-color="#D7D7D7"/>
</linearGradient>
<linearGradient id="paint7_linear" x1="372.748" y1="87.055" x2="372.748" y2="104.945" gradientUnits="userSpaceOnUse">
<stop stop-color="#FFE89E"/>
<stop offset="1" stop-color="#FFBF1A"/>
</linearGradient>
<linearGradient id="paint8_linear" x1="400.19" y1="66.5746" x2="400.19" y2="78.4824" gradientUnits="userSpaceOnUse">
<stop stop-color="#FFE89E"/>
<stop offset="1" stop-color="#FFBF1A"/>
</linearGradient>
<linearGradient id="paint9_linear" x1="440.959" y1="48.6507" x2="440.959" y2="66.5403" gradientUnits="userSpaceOnUse">
<stop stop-color="#FFE89E"/>
<stop offset="1" stop-color="#FFBF1A"/>
</linearGradient>
<linearGradient id="paint10_linear" x1="436.47" y1="124.249" x2="436.47" y2="150.569" gradientUnits="userSpaceOnUse">
<stop stop-color="#FFE89E"/>
<stop offset="1" stop-color="#FFBF1A"/>
</linearGradient>
<linearGradient id="paint11_linear" x1="162.71" y1="87.055" x2="162.71" y2="104.945" gradientUnits="userSpaceOnUse">
<stop stop-color="#FFE89E"/>
<stop offset="1" stop-color="#FFBF1A"/>
</linearGradient>
<linearGradient id="paint12_linear" x1="135.268" y1="66.5746" x2="135.268" y2="78.4824" gradientUnits="userSpaceOnUse">
<stop stop-color="#FFE89E"/>
<stop offset="1" stop-color="#FFBF1A"/>
</linearGradient>
<linearGradient id="paint13_linear" x1="94.4989" y1="48.6507" x2="94.4989" y2="66.5403" gradientUnits="userSpaceOnUse">
<stop stop-color="#FFE89E"/>
<stop offset="1" stop-color="#FFBF1A"/>
</linearGradient>
<linearGradient id="paint14_linear" x1="98.9882" y1="124.249" x2="98.9882" y2="150.569" gradientUnits="userSpaceOnUse">
<stop stop-color="#FFE89E"/>
<stop offset="1" stop-color="#FFBF1A"/>
</linearGradient>
</defs>
</svg>
