<svg width="55" height="56" viewBox="0 0 55 56" fill="none" xmlns="http://www.w3.org/2000/svg">
<rect y="0.450684" width="55" height="55" rx="27.5" fill="#FFECEC"/>
<path d="M34.5 24.9507C34.5 24.0314 34.3189 23.1212 33.9672 22.2719C33.6154 21.4226 33.0998 20.6509 32.4497 20.0009C31.7997 19.3509 31.0281 18.8353 30.1788 18.4835C29.3295 18.1317 28.4193 17.9507 27.5 17.9507C26.5807 17.9507 25.6705 18.1317 24.8212 18.4835C23.9719 18.8353 23.2003 19.3509 22.5503 20.0009C21.9002 20.6509 21.3846 21.4226 21.0328 22.2719C20.6811 23.1212 20.5 24.0314 20.5 24.9507C20.5 26.3377 20.91 27.6277 21.605 28.7157H21.597C23.957 32.4107 27.5 37.9507 27.5 37.9507L33.403 28.7157H33.396C34.1164 27.5921 34.4995 26.2854 34.5 24.9507ZM27.5 27.9507C26.7044 27.9507 25.9413 27.6346 25.3787 27.072C24.8161 26.5094 24.5 25.7463 24.5 24.9507C24.5 24.155 24.8161 23.392 25.3787 22.8294C25.9413 22.2668 26.7044 21.9507 27.5 21.9507C28.2956 21.9507 29.0587 22.2668 29.6213 22.8294C30.1839 23.392 30.5 24.155 30.5 24.9507C30.5 25.7463 30.1839 26.5094 29.6213 27.072C29.0587 27.6346 28.2956 27.9507 27.5 27.9507Z" fill="#CF6766"/>
</svg>
