<svg width="55" height="56" viewBox="0 0 55 56" fill="none" xmlns="http://www.w3.org/2000/svg">
<rect y="0.5" width="55" height="55" rx="27.5" fill="#FFECEC"/>
<path fill-rule="evenodd" clip-rule="evenodd" d="M27.4996 26.8C28.4544 26.8 29.3701 26.4207 30.0452 25.7456C30.7203 25.0704 31.0996 24.1548 31.0996 23.2C31.0996 22.2452 30.7203 21.3295 30.0452 20.6544C29.3701 19.9793 28.4544 19.6 27.4996 19.6C26.5448 19.6 25.6292 19.9793 24.954 20.6544C24.2789 21.3295 23.8996 22.2452 23.8996 23.2C23.8996 24.1548 24.2789 25.0704 24.954 25.7456C25.6292 26.4207 26.5448 26.8 27.4996 26.8ZM22.3983 37.6C20.5765 37.6 19.0419 36.0686 19.739 34.3854C20.1612 33.3663 20.7799 32.4403 21.5599 31.6603C22.3399 30.8803 23.2659 30.2615 24.2851 29.8394C25.3042 29.4172 26.3965 29.2 27.4996 29.2C28.6027 29.2 29.695 29.4172 30.7142 29.8394C31.7333 30.2615 32.6593 30.8803 33.4393 31.6603C34.2193 32.4403 34.8381 33.3663 35.2602 34.3854C35.9574 36.0686 34.4228 37.6 32.601 37.6H22.3983Z" fill="#CF6766"/>
</svg>
