<svg width="55" height="56" viewBox="0 0 55 56" fill="none" xmlns="http://www.w3.org/2000/svg">
<rect y="0.5" width="55" height="55" rx="27.5" fill="#FFECEC"/>
<path d="M34.5 19H18.5C17.9696 19 17.4609 19.2107 17.0858 19.5858C16.7107 19.9609 16.5 20.4696 16.5 21V25C16.5 25.5304 16.7107 26.0391 17.0858 26.4142C17.4609 26.7893 17.9696 27 18.5 27H34.5C35.0304 27 35.5391 26.7893 35.9142 26.4142C36.2893 26.0391 36.5 25.5304 36.5 25V21C36.5 20.4696 36.2893 19.9609 35.9142 19.5858C35.5391 19.2107 35.0304 19 34.5 19ZM29.5 23C29.5 23.5523 29.0523 24 28.5 24C27.9477 24 27.5 23.5523 27.5 23C27.5 22.4477 27.9477 22 28.5 22C29.0523 22 29.5 22.4477 29.5 23ZM33.5 23C33.5 23.5523 33.0523 24 32.5 24C31.9477 24 31.5 23.5523 31.5 23C31.5 22.4477 31.9477 22 32.5 22C33.0523 22 33.5 22.4477 33.5 23ZM34.5 29H18.5C17.9696 29 17.4609 29.2107 17.0858 29.5858C16.7107 29.9609 16.5 30.4696 16.5 31V35C16.5 35.5304 16.7107 36.0391 17.0858 36.4142C17.4609 36.7893 17.9696 37 18.5 37H34.5C35.0304 37 35.5391 36.7893 35.9142 36.4142C36.2893 36.0391 36.5 35.5304 36.5 35V31C36.5 30.4696 36.2893 29.9609 35.9142 29.5858C35.5391 29.2107 35.0304 29 34.5 29ZM29.5 33C29.5 33.5523 29.0523 34 28.5 34C27.9477 34 27.5 33.5523 27.5 33C27.5 32.4477 27.9477 32 28.5 32C29.0523 32 29.5 32.4477 29.5 33ZM33.5 33C33.5 33.5523 33.0523 34 32.5 34C31.9477 34 31.5 33.5523 31.5 33C31.5 32.4477 31.9477 32 32.5 32C33.0523 32 33.5 32.4477 33.5 33Z" fill="#CF6766"/>
</svg>
