<svg width="25" height="25" viewBox="0 0 25 25" fill="none" xmlns="http://www.w3.org/2000/svg">
<path d="M12.1211 2.54932C6.60709 2.54932 2.12109 7.03532 2.12109 12.5493C2.12109 18.0633 6.60709 22.5493 12.1211 22.5493C17.6351 22.5493 22.1211 18.0633 22.1211 12.5493C22.1211 7.03532 17.6351 2.54932 12.1211 2.54932ZM10.1221 16.9623L7.11655 13.9632C6.72579 13.5733 6.725 12.9405 7.11478 12.5496C7.50481 12.1585 8.13811 12.1578 8.52902 12.548L10.1201 14.1363L14.7071 9.54932C15.0976 9.15885 15.7306 9.15885 16.1211 9.54932C16.5116 9.93978 16.5116 10.5729 16.1211 10.9633L10.1221 16.9623Z" fill="#2FAB73"/>
</svg>
